<?xml version="1.0" encoding="UTF-8" standalone="no"?>
<svg
   width="500"
   height="500"
   viewBox="0 0 132.29166 132.29167"
   version="1.1"
   id="svg899"
   inkscape:version="1.2 (dc2aedaf03, 2022-05-15)"
   sodipodi:docname="logo.svg"
   xmlns:inkscape="http://www.inkscape.org/namespaces/inkscape"
   xmlns:sodipodi="http://sodipodi.sourceforge.net/DTD/sodipodi-0.dtd"
   xmlns="http://www.w3.org/2000/svg"
   xmlns:svg="http://www.w3.org/2000/svg"
   xmlns:rdf="http://www.w3.org/1999/02/22-rdf-syntax-ns#"
   xmlns:cc="http://creativecommons.org/ns#"
   xmlns:dc="http://purl.org/dc/elements/1.1/">
  <defs
     id="defs893">
    <rect
       id="rect965"
       height="34.265011"
       width="23.26573"
       y="129.62466"
       x="66.29612" />
    <rect
       x="107.81771"
       y="142.08125"
       width="32.134323"
       height="10.2353"
       id="rect4018" />
    <rect
       x="107.88385"
       y="142.08125"
       width="32.068176"
       height="10.2353"
       id="rect4012" />
    <rect
       x="51.064583"
       y="172.77292"
       width="19.579166"
       height="23.283333"
       id="rect2330" />
    <rect
       x="78.316666"
       y="174.625"
       width="80.168747"
       height="86.254166"
       id="rect2324" />
    <rect
       x="63.131512"
       y="46.237164"
       width="120.03879"
       height="87.583855"
       id="rect2196" />
    <rect
       x="58.740204"
       y="49.827896"
       width="92.363907"
       height="108.5681"
       id="rect1542" />
    <rect
       x="14.17867"
       y="29.977758"
       width="177.84103"
       height="167.3083"
       id="rect1530" />
  </defs>
  <sodipodi:namedview
     id="base"
     pagecolor="#ffffff"
     bordercolor="#666666"
     borderopacity="1.0"
     inkscape:pageopacity="1"
     inkscape:pageshadow="2"
     inkscape:zoom="1"
     inkscape:cx="100.5"
     inkscape:cy="235"
     inkscape:document-units="mm"
     inkscape:current-layer="layer3"
     inkscape:document-rotation="0"
     showgrid="true"
     showguides="false"
     inkscape:guide-bbox="true"
     inkscape:lockguides="false"
     inkscape:pagecheckerboard="false"
     inkscape:window-width="1920"
     inkscape:window-height="1057"
     inkscape:window-x="-8"
     inkscape:window-y="-8"
     inkscape:window-maximized="1"
     inkscape:showpageshadow="2"
     inkscape:deskcolor="#d1d1d1" />
  <metadata
     id="metadata896">
    <rdf:RDF>
      <cc:Work
         rdf:about="">
        <dc:format>image/svg+xml</dc:format>
        <dc:type
           rdf:resource="http://purl.org/dc/dcmitype/StillImage" />
      </cc:Work>
    </rdf:RDF>
  </metadata>
  <g
     inkscape:label="Слой 1"
     inkscape:groupmode="layer"
     id="layer1"
     style="display:inline"
     transform="translate(-40.850241,-81.75875)">
    <text
       xml:space="preserve"
       id="text1528"
       style="font-size:10.5833px;line-height:1.25;font-family:Moderan;-inkscape-font-specification:Moderan;white-space:pre;shape-inside:url(#rect1530);display:inline" />
    <text
       xml:space="preserve"
       id="text2194"
       style="font-size:19.7556px;line-height:1.25;font-family:Moderan;-inkscape-font-specification:Moderan;white-space:pre;shape-inside:url(#rect2196);display:inline" />
    <ellipse
       style="fill:#ffffff;stroke-width:9.368"
       id="path2262"
       cx="244.3378"
       cy="354.72009"
       rx="28.811655"
       ry="4.4901276" />
    <text
       xml:space="preserve"
       id="text2322"
       style="font-size:19.7556px;line-height:1.25;font-family:Moderan;-inkscape-font-specification:Moderan;white-space:pre;shape-inside:url(#rect2324);display:inline" />
    <path
       id="rect2336"
       style="opacity:1;fill:#000000;fill-opacity:1;stroke:#000000;stroke-width:0.389744;stroke-miterlimit:4;stroke-dasharray:none;stroke-opacity:1"
       d="m 43.528798,211.652 36.25009,1e-5 v -0.16643 l -36.131096,1e-5 -5e-6,-126.881969 h 36.131055 l 9.9e-5,-0.166335 -36.250065,1.4e-5 z m 91.014742,1e-5 36.19998,1e-5 1e-5,-127.214734 -36.19997,1.4e-5 v 0.166432 l 36.08101,1.4e-5 V 211.48581 l -36.08098,2e-5 z" />
    <text
       style="font-size:10.5833px;line-height:1.25;font-family:Moderan;-inkscape-font-specification:Moderan;white-space:pre;shape-inside:url(#rect965);display:inline"
       id="text963"
       xml:space="preserve" />
  </g>
  <g
     inkscape:groupmode="layer"
     id="layer3"
     inkscape:label="Слой 2"
     style="display:inline"
     transform="translate(-40.850241,-81.75875)">
    <text
       xml:space="preserve"
       id="text4010"
       style="font-size:7.05556px;line-height:1.25;font-family:Moderan;-inkscape-font-specification:Moderan;white-space:pre;shape-inside:url(#rect4012);display:inline" />
    <path
       id="path3299"
       style="font-size:19.7556px;line-height:1.25;font-family:Moderan;-inkscape-font-specification:Moderan;white-space:pre;display:inline;mix-blend-mode:normal;fill:none;stroke:#000000;stroke-width:0.309188;stroke-miterlimit:4;stroke-dasharray:none;stroke-opacity:1"
       d="m 56.91064,145.25213 c -0.920107,0.92012 -1.685754,1.9269 -2.297248,3.02096 -0.617158,1.08841 -1.080258,2.22444 -1.388842,3.40821 -0.302938,1.17821 -0.453934,2.37907 -0.453934,3.60213 0.0056,1.21745 0.159615,2.4153 0.462562,3.59348 0.308597,1.17255 0.771709,2.30856 1.388848,3.4082 0.617151,1.08843 1.385313,2.09271 2.305406,3.01281 l 42.692119,42.69212 c 0.08412,0.0841 0.182756,0.12604 0.295164,0.12618 0.112115,-2e-4 0.210065,-0.0421 0.294205,-0.12618 l 10.01447,-10.01448 c 0.0786,-0.0786 0.11783,-0.17398 0.11796,-0.286 0.006,-0.11796 -0.034,-0.21931 -0.1181,-0.30326 L 89.613721,176.77666 c -0.08411,-0.0841 -0.114915,-0.17065 -0.0926,-0.26061 0.02245,-0.09 0.07256,-0.1744 0.151121,-0.25295 l 9.997703,-9.9977 c 0.08412,-0.0841 0.163103,-0.12883 0.236208,-0.1344 0.07312,-0.006 0.151457,0.0334 0.235537,0.11755 l 20.60963,20.60977 c 0.0841,0.0841 0.19346,0.11546 0.32824,0.0932 0.13468,-0.0226 0.24407,-0.076 0.32829,-0.16027 l 10.01448,-10.0145 c 0.0786,-0.0786 0.12048,-0.17659 0.12619,-0.29419 0.006,-0.11797 -0.034,-0.21932 -0.11797,-0.30334 l -20.61778,-20.61775 -5.01438,5.01433 c -3.84013,-3.84014 -6.511909,-6.51192 -11.193618,-11.19365 l 5.014352,-5.01435 -10.880657,-10.88064 c -0.920109,-0.92013 -1.926936,-1.68576 -3.020952,-2.29727 -1.094049,-0.62278 -2.230041,-1.08588 -3.408215,-1.38886 -1.172579,-0.30856 -2.370427,-0.4626 -3.593449,-0.4626 -1.22308,3e-5 -2.426967,0.15404 -3.610795,0.4626 -1.178142,0.30301 -2.311128,0.76308 -3.399591,1.38018 -1.094046,0.61152 -2.101329,1.3777 -3.021414,2.29777 z m 13.549437,7.65822 5.882582,-5.88258 c 0.325404,-0.3254 0.69271,-0.56409 1.102316,-0.71554 0.403961,-0.15707 0.813397,-0.23004 1.228489,-0.21883 0.420806,0.006 0.832739,0.0983 1.236683,0.27787 0.403973,0.1683 0.769311,0.41508 1.094681,0.74045 l 7.952852,7.95286 c 0.07859,0.0786 0.128675,0.16314 0.15115,0.25297 0.01694,0.0843 -0.01655,0.16822 -0.100834,0.25251 l -10.01449,10.01448 c -0.07859,0.0786 -0.17116,0.12075 -0.277846,0.12619 -0.112366,-1e-4 -0.207568,-0.0396 -0.286098,-0.11811 l -7.952864,-7.95285 c -0.325383,-0.32542 -0.569609,-0.69331 -0.732332,-1.10285 -0.168352,-0.4152 -0.252429,-0.83578 -0.252415,-1.26211 2.5e-5,-0.42633 0.08161,-0.84439 0.24429,-1.25397 0.157042,-0.41522 0.398276,-0.78503 0.723681,-1.11046 z"
       sodipodi:nodetypes="scccccsscsscsssssssscsscsccccsccsccsscscccsscsscsscscsc" />
    <path
       id="path3301"
       style="font-size:19.7556px;line-height:1.25;font-family:Moderan;-inkscape-font-specification:Moderan;white-space:pre;display:inline;mix-blend-mode:normal;fill:none;stroke:#000000;stroke-width:0.309188;stroke-miterlimit:4;stroke-dasharray:none;stroke-opacity:1"
       d="m 124.65882,98.10532 q 0.11769,0.117687 0.11797,0.303088 -2e-4,0.184942 -0.11797,0.302754 L 93.453822,129.91604 q -0.117825,0.11783 -0.302741,0.11797 -0.184949,1.9e-4 -0.302982,-0.11783 l -9.9977,-9.9977 q -0.117687,-0.11769 -0.117951,-0.3031 2.07e-4,-0.18495 0.117965,-0.30273 L 114.05521,88.10777 q 0.11782,-0.117826 0.30272,-0.117966 0.18535,1.95e-4 0.30311,0.117966 z m 21.20722,21.20718 q 0.11769,0.11768 0.11797,0.30311 -2e-4,0.18494 -0.11811,0.30284 l -31.20488,31.20488 q -0.11782,0.11782 -0.30272,0.11796 -0.18495,2e-4 -0.30311,-0.11796 l -9.99767,-9.99768 q -0.11769,-0.11768 -0.11797,-0.3031 2e-4,-0.18494 0.11797,-0.30273 l 31.20493,-31.20483 q 0.11783,-0.11783 0.30284,-0.11811 0.18496,-1.9e-4 0.3031,0.11797 z m 21.20722,21.20724 q 0.11769,0.11769 0.11796,0.30309 -1.9e-4,0.18494 -0.11796,0.30273 l -31.20501,31.20489 q -0.11782,0.11782 -0.30272,0.11796 -0.18494,2e-4 -0.3031,-0.11796 l -9.99769,-9.99768 q -0.11769,-0.11768 -0.11783,-0.30299 2e-4,-0.18494 0.11797,-0.30274 l 31.20479,-31.20481 q 0.11783,-0.11782 0.30276,-0.11796 0.18494,-2e-4 0.30308,0.11796 z" />
    <rect
       style="display:inline;fill:none;fill-opacity:1;stroke:#000000;stroke-width:0.309188;stroke-miterlimit:4;stroke-dasharray:none;stroke-dashoffset:0;stroke-opacity:1"
       id="rect3328"
       width="9.0334005"
       height="10.406287"
       x="-35.308617"
       y="175.32549"
       ry="0.13914004"
       transform="rotate(-45)" />
    <rect
       style="fill:#000000;fill-opacity:1;stroke:none;stroke-width:0.557096;stroke-miterlimit:4;stroke-dasharray:none;stroke-dashoffset:0;stroke-opacity:1"
       id="rect4006"
       width="1.8662723"
       height="1.8801997"
       x="-33.171673"
       y="176.83911"
       ry="0.11141924"
       transform="rotate(-45)" />
    <rect
       y="182.37753"
       x="-33.171375"
       height="1.8801997"
       width="1.8662723"
       id="rect4008"
       style="fill:#000000;fill-opacity:1;stroke:none;stroke-width:0.950685;stroke-miterlimit:4;stroke-dasharray:none;stroke-dashoffset:0;stroke-opacity:1"
       ry="0.11141924"
       transform="rotate(-45)" />
  </g>
</svg>
